<svg width="20" height="20" viewBox="0 0 20 20" fill="none" xmlns="http://www.w3.org/2000/svg">
<path d="M19 10H13.6L11.8 13.375H8.2L6.4 10H1" stroke="white" stroke-width="2" stroke-linecap="round" stroke-linejoin="round"/>
<path d="M4.105 2.24875L1 10V16.75C1 17.3467 1.18964 17.919 1.52721 18.341C1.86477 18.7629 2.32261 19 2.8 19H17.2C17.6774 19 18.1352 18.7629 18.4728 18.341C18.8104 17.919 19 17.3467 19 16.75V10L15.895 2.24875C15.746 1.87389 15.5163 1.55842 15.2317 1.33781C14.9471 1.11721 14.6189 1.00022 14.284 1H5.716C5.38112 1.00022 5.05294 1.11721 4.76834 1.33781C4.48374 1.55842 4.25402 1.87389 4.105 2.24875Z" stroke="white" stroke-width="2" stroke-linecap="round" stroke-linejoin="round"/>
</svg>
