<svg width="23" height="25" viewBox="0 0 23 25" fill="none" xmlns="http://www.w3.org/2000/svg">
<path d="M21.7751 10.2197L12.1376 0.369748C12.0214 0.252587 11.8832 0.159594 11.7309 0.0961336C11.5785 0.0326728 11.4152 0 11.2501 0C11.0851 0 10.9217 0.0326728 10.7694 0.0961336C10.6171 0.159594 10.4788 0.252587 10.3626 0.369748L0.725144 10.2322C0.49194 10.4673 0.307762 10.7464 0.183304 11.0533C0.058846 11.3601 -0.00341222 11.6886 0.000144205 12.0197V22.4947C-0.000824325 23.1346 0.243611 23.7505 0.683112 24.2156C1.12261 24.6807 1.72372 24.9596 2.36264 24.9947H20.1376C20.7766 24.9596 21.3777 24.6807 21.8172 24.2156C22.2567 23.7505 22.5011 23.1346 22.5001 22.4947V12.0197C22.5011 11.3484 22.2412 10.703 21.7751 10.2197ZM8.75014 22.4947V14.9947H13.7501V22.4947H8.75014ZM20.0001 22.4947H16.2501V13.7447C16.2501 13.4132 16.1184 13.0953 15.884 12.8609C15.6496 12.6264 15.3317 12.4947 15.0001 12.4947H7.50014C7.16862 12.4947 6.85068 12.6264 6.61626 12.8609C6.38184 13.0953 6.25014 13.4132 6.25014 13.7447V22.4947H2.50014V11.9697L11.2501 3.03225L20.0001 12.0197V22.4947Z" fill="white"/>
</svg>
